PathFileType	4	(X/Y/Z)	RBDS09\RBDS09runT35.trc
DataRate	CameraRate	NumFrames	NumMarkers	Units	OrigDataRate	OrigDataStartFrame	OrigNumFrames
150.000000	150.000000	6	33	mm	150.000000	0	4500
Frame#	Time	L.ASIS			L.Heel.Bottom			L.Heel.Lateral			L.Heel.Top			L.Iliac.Crest			L.MT1			L.MT5			L.PSIS			L.Shank.Bottom.Lateral			L.Shank.Bottom.Medial			L.Shank.Top.Lateral			L.Shank.Top.Medial			L.Thigh.Bottom.Lateral			L.Thigh.Bottom.Medial			L.Thigh.Top.Lateral			L.Thigh.Top.Medial			R.ASIS			R.ASY			R.Heel.Bottom			R.Heel.Lateral			R.Heel.Top			R.Iliac.Crest			R.MT1			R.MT5			R.PSIS			R.Shank.Bottom.Lateral			R.Shank.Bottom.Medial			R.Shank.Top.Lateral			R.Shank.Top.Medial			R.Thigh.Bottom.Lateral			R.Thigh.Bottom.Medial			R.Thigh.Top.Lateral			R.Thigh.Top.Medial			
		X1	Y1	Z1	X2	Y2	Z2	X3	Y3	Z3	X4	Y4	Z4	X5	Y5	Z5	X6	Y6	Z6	X7	Y7	Z7	X8	Y8	Z8	X9	Y9	Z9	X10	Y10	Z10	X11	Y11	Z11	X12	Y12	Z12	X13	Y13	Z13	X14	Y14	Z14	X15	Y15	Z15	X16	Y16	Z16	X17	Y17	Z17	X18	Y18	Z18	X19	Y19	Z19	X20	Y20	Z20	X21	Y21	Z21	X22	Y22	Z22	X23	Y23	Z23	X24	Y24	Z24	X25	Y25	Z25	X26	Y26	Z26	X27	Y27	Z27	X28	Y28	Z28	X29	Y29	Z29	X30	Y30	Z30	X31	Y31	Z31	X32	Y32	Z32	X33	Y33	Z33	

1	0	2271.359307211735	947.5668296824676	909.0093229031278	1833.680285499806	87.92431488546289	1032.096235350542	1866.857083906386	96.88509460864464	986.8379427421388	1855.520857905766	132.1636887290059	1030.017100110353	2193.947696537123	992.9599302704199	884.2774957081414	2040.162755243996	37.92247696509205	1048.114437204555	1991.374619970623	43.97016525038822	948.4635513677194	2118.954489786543	970.9471601772299	1016.947447426597	1951.69731029098	203.4890602813953	957.6786527680281	1920.992013834156	225.0300124243225	996.1842742294248	1981.294934381542	275.7499834524631	939.6109629413917	1954.341077629634	297.4747831562864	980.8879501442124	2125.74398677171	587.9397018954403	909.5972959761523	2084.294619935687	595.3998373702228	969.73950264183	2124.830576126531	698.4540748294485	898.3053870597178	2089.75199089793	705.12132528171	958.1782583307241	2292.197941640887	944.0809325871531	1145.392495217033	2172.627264194414	242.2032132269577	1156.447644657011	2024.43083285688	339.6185941993974	1113.840350453354	2055.081269052031	328.3073057643695	1164.378358307088	2069.657264693921	359.7501905056693	1117.689238634407	2218.023746430747	999.8028624298515	1193.577599522308	2163.68845328509	181.3690325165001	1110.999485555257	2120.636510865385	207.0003255284796	1211.158139265235	2122.988873345991	965.7244781963996	1090.320997012917	2164.959383264558	393.513298310276	1173.175218268261	2155.960404728031	409.4381597682155	1125.078397561991	2225.54404342944	452.2713999266233	1179.283454701857	2212.575197105009	466.5399067064643	1129.771057741649	2411.446806549292	608.4428667064919	1198.545458514114	2365.91134075639	569.817301750263	1158.260153138502	2333.229405008842	687.2435026619672	1209.342995896601	2289.563751595296	648.8109717029741	1172.727338144158	
2	0.006666666666666667	2273.843153021247	949.8067961797476	908.8075541012859	1816.677908394605	99.69902811425064	1030.035027994727	1849.961683469162	105.5555684705079	984.614704831445	1840.760049120594	142.3032493213401	1026.920875216797	2199.552935806663	996.5261682282655	884.482484802744	2018.471510000855	38.20164523809075	1047.577751990804	1970.287355735351	44.99275863075492	947.370344451874	2121.903623166377	975.9869156816208	1017.492928311686	1935.819697929546	211.9229384836323	955.4891698074977	1905.956759007128	232.9333266144466	994.91972822048	1965.741258929252	284.2357304248424	938.2473055825302	1939.327178742087	305.4895940360892	980.0713039139971	2116.565376547536	595.7189082612268	910.5296422374636	2077.043477986618	604.4827669193227	971.5025958984439	2120.089041048388	705.7963371284837	899.2916062239797	2086.895604959556	713.6671942914335	959.9203240265841	2294.311970987403	949.457468017099	1144.253115538332	2196.367828564958	233.122936937047	1156.108482981865	2042.75861082978	319.6459168583869	1113.345788026821	2073.816200630453	310.7134754430087	1163.925276947369	2086.016869636024	342.7743596195862	1117.005404318411	2222.928444182515	1006.839118576054	1193.815615404536	2192.296953203966	172.2265843254467	1111.510444314233	2147.398645750325	195.1235050609006	1211.43277250898	2125.466501774836	971.6082834145043	1090.762889103355	2178.807399639161	383.123752151072	1172.429226597137	2168.999297441839	397.9939844862893	1124.218998050065	2235.082077057249	445.5654554901492	1178.0955759852	2221.6279242632	458.3942589983193	1128.398226088016	2414.973358326929	616.4265092958788	1197.867300363229	2369.483379203002	576.8908374526071	1158.368230401793	2336.276181841941	694.1956290157344	1209.257900151315	2292.664729472354	655.2696734956216	1173.096568549778	
3	0.01333333333333333	2276.355829379414	952.0246468326553	908.6279757102774	1800.046934229438	111.6714222961513	1027.942889169703	1833.387747061331	114.4563822224309	982.3757116807174	1826.359726350345	152.5909995008508	1023.835369334777	2205.254685479661	1000.172597111294	884.6908515081686	1996.976992978282	38.69117968335918	1046.958487106657	1949.400573281466	46.2700029954243	946.231988202473	2124.862338506686	980.9977678294287	1017.951855675711	1920.264686878522	220.3869226395461	953.3021378786791	1891.209402959284	240.8803220312142	993.6181305045654	1950.525482025486	292.7416461927074	936.8878694637367	1924.610775983678	313.5408088803968	979.2227292862727	2107.576726693026	603.5112195711599	911.418120804081	2069.961370381467	613.5418335055093	973.2105983254322	2115.486892916937	713.1345718585014	900.2584615378238	2084.159022052073	722.1559288457737	961.6335700806377	2296.386983955863	954.7358879755176	1143.131984628415	2220.141713194354	224.1707598105108	1155.708417453424	2061.309729117302	299.7470555152134	1112.870952280439	2092.750996676025	293.1750505880981	1163.482339863173	2102.565416112044	325.8303123506044	1116.356056233777	2227.694731906302	1013.835422110608	1193.975532923989	2220.877269476714	163.3014144747691	1111.898390125101	2174.25112465972	183.3838030140907	1211.604580664912	2127.94197844036	977.4248444081985	1091.121475015252	2192.72350917438	372.6923030979028	1171.688323104125	2182.150049090726	386.5211694680673	1123.360734268016	2244.663638974476	438.7216838176883	1176.936098526304	2230.764797557862	450.1374501278257	1127.054944074021	2418.293756856379	624.1212190000183	1197.183689084131	2372.769428802802	583.6865314671257	1158.555976596557	2339.178912790027	700.9565298330427	1209.108199281448	2295.566732427924	661.5537353607332	1173.464181304717	
4	0.02	2278.921286007985	954.2078951433547	908.4901819385963	1784.080544594824	123.9978329613468	1025.802239386286	1817.388489905389	123.781481193498	980.1141613593121	1812.601241637552	163.1477246897574	1020.778528788025	2211.139620238299	1003.97807127261	884.910102548852	1975.841048263688	39.57632686433946	1046.176043011085	1928.878188919139	48.03212391050773	945.0043455845409	2127.833285491227	985.958662475206	1018.247586219629	1905.292060121546	228.9090994171576	951.1263593778104	1876.978835452511	248.9108809739766	992.2559696590798	1935.924315663736	301.2897646526662	935.540923679562	1910.434989568326	321.6632661180159	978.3218122581616	2098.958219269015	611.3336576312316	912.2157472609213	2063.1950182177	622.5709234934673	974.7948735284838	2111.161757895255	720.467217172922	901.1726901318243	2081.646831603641	730.5509870604121	963.2657397725835	2298.386343737825	959.8294561313437	1142.044773329073	2244.00910168006	215.4980503825753	1155.185542816796	2080.333965048825	279.9926344056887	1112.442640147235	2112.113282337888	275.756032009118	1163.063417788388	2119.513222356807	308.9500322974399	1115.775245303575	2232.197994194012	1020.750243825938	1193.992138415912	2249.436163752087	154.8310581336464	1112.04460901347	2201.31872414004	171.9544876318951	1211.580821915797	2130.40721804692	983.1170594605321	1091.323775353537	2206.811570821717	362.1903014556768	1170.965078741475	2195.533398939043	375.0048988071117	1122.520858444897	2254.364910000864	431.6196260429136	1175.848194315546	2240.073587292245	441.6768600510767	1125.794180288193	2421.206008200259	631.2531306038426	1196.49748591737	2375.510316062278	589.9521875821107	1158.878363794657	2341.794157999806	707.3414251831933	1208.844646621394	2298.083726131671	667.4992426020146	1173.820161531464	
5	0.02666666666666667	2281.549532677617	956.3446995532987	908.4069290738983	1769.005910374248	136.7723400005153	1023.619553554233	1802.161712367084	133.6684877410484	977.8418664351051	1799.69464337677	174.0499471193706	1017.785202238569	2217.253185449657	1007.992180609601	885.1495575567967	1955.214155811724	41.01506943616464	1045.165041693183	1908.868158683785	50.47767362703495	943.655597927206	2130.807230337114	990.8388002761023	1018.319731964693	1891.110454928441	237.5023851009464	948.981504380217	1863.450388534814	257.0533107796522	990.8259936317494	1922.165352050154	309.884279447005	934.2182329554101	1897.00570358609	329.8764224987589	977.359295269611	2090.883057454497	619.1710916487451	912.8863465075714	2056.871400530708	631.5444400492426	976.1899497949585	2107.240345582326	727.7664013911923	901.9971503931165	2079.443481083243	738.8060491812449	964.7559983228909	2300.276711979788	964.6609024061205	1141.005085256435	2267.986019813486	207.2451755325933	1154.491506547675	2100.011365517124	260.4718743941514	1112.074856382882	2132.064279727695	258.5380251864516	1162.671365634814	2137.010568963535	292.1855878053421	1115.282127005056	2236.326557440144	1027.523791674584	1193.820400898915	2277.93967126804	147.0242062974719	1111.852297395715	2228.662872222374	161.0030936665798	1211.286181310808	2132.846754576444	988.624979682413	1091.313677672482	2221.140757571653	351.6107920064664	1170.267984333371	2209.226698488565	363.4531847120655	1121.714125518199	2264.235957448794	424.173397266006	1174.872104336891	2249.607587698674	432.9530579589324	1124.665071296364	2423.531922162287	637.5797980655365	1195.815895643794	2377.492772108775	595.474255208097	1159.359235109925	2343.992195671904	713.1780392107329	1208.435203038882	2300.058335121047	672.9576189232357	1174.145751091151	
6	0.03333333333333333	2284.234630408094	958.4235558028683	908.38357800586	1754.963030922533	150.0205500990294	1021.42991357688	1787.83140987858	144.1914533040781	975.5927111149389	1787.757049549488	185.3267957639956	1014.909637676751	2223.587738549296	1012.226431097935	885.4200466114155	1935.223765971637	43.13601125691904	1043.883195812763	1889.491393124566	53.76901862646218	942.1710366116804	2133.760898788868	995.5948940611954	1018.128499849849	1877.861564656928	246.1671921233848	946.9002810208702	1850.753146219385	265.3279418386974	989.341399715057	1909.413358807628	318.5120089337809	932.9366116518603	1884.48154210104	338.1855393546152	976.3406754352343	2083.517039901842	626.9638874527143	913.406746332577	2051.095863018807	640.4070204086314	977.3350798457067	2103.836358714696	734.9677576982439	902.6899981317227	2077.609365924737	746.8584611863276	966.0333279692642	2302.028727755665	969.16555922844	1140.025269728209	2292.03282318463	199.5349704823192	1153.594820574929	2120.434102412829	241.2927477259924	1111.762776082867	2152.680946052478	241.6197728004829	1162.293585241762	2155.131545031502	275.610032560669	1114.875453215784	2239.986349935773	1034.073360785369	1193.441517570239	2306.304496585369	140.0504199825759	1111.253721695673	2256.266055867842	150.6849395581009	1210.667187553572	2135.236247421117	993.8851195309863	1091.056315569218	2235.734128894591	340.971573798688	1169.598797613523	2223.25116326018	351.8991120410396	1120.949866935737	2274.290693689108	416.3386640527943	1174.040932579428	2259.374466813439	423.9451211843128	1123.708112828368	2425.123908581635	642.9008494159806	1195.151135374775	2378.561593534929	600.0896502804981	1159.983083167087	2345.660455670784	718.3114397531183	1207.870034576038	2301.369589127508	677.8011706943198	1174.411498897269	
